<?xml version="1.0" encoding="UTF-8" standalone="no"?>
<svg
   xmlns:dc="http://purl.org/dc/elements/1.1/"
   xmlns:cc="http://creativecommons.org/ns#"
   xmlns:rdf="http://www.w3.org/1999/02/22-rdf-syntax-ns#"
   xmlns:svg="http://www.w3.org/2000/svg"
   xmlns="http://www.w3.org/2000/svg"
   xmlns:sodipodi="http://sodipodi.sourceforge.net/DTD/sodipodi-0.dtd"
   xmlns:inkscape="http://www.inkscape.org/namespaces/inkscape"
   inkscape:version="1.0 (4035a4fb49, 2020-05-01)"
   sodipodi:docname="userban.svg"
   id="svg4"
   version="1.1"
   width="16"
   height="16"
   viewbox="0 0 16 16">
  <metadata
     id="metadata10">
    <rdf:RDF>
      <cc:Work
         rdf:about="">
        <dc:format>image/svg+xml</dc:format>
        <dc:type
           rdf:resource="http://purl.org/dc/dcmitype/StillImage" />
      </cc:Work>
    </rdf:RDF>
  </metadata>
  <defs
     id="defs8" />
  <sodipodi:namedview
     inkscape:current-layer="svg4"
     inkscape:window-maximized="1"
     inkscape:window-y="-8"
     inkscape:window-x="54"
     inkscape:cy="8"
     inkscape:cx="8"
     inkscape:zoom="55.625"
     showgrid="false"
     id="namedview6"
     inkscape:window-height="1057"
     inkscape:window-width="2498"
     inkscape:pageshadow="2"
     inkscape:pageopacity="0"
     guidetolerance="10"
     gridtolerance="10"
     objecttolerance="10"
     borderopacity="1"
     bordercolor="#666666"
     pagecolor="#ffffff" />
  <path
     style="fill:none;stroke:#000000;stroke-width:1.2;stroke-miterlimit:4;stroke-dasharray:none;stroke-linecap:round;stroke-linejoin:round"
     id="path2"
     d="m5 3.8c0 1.4 0.1 2.4 0.8 3.5 0.2 0.286 0.5 0.35 0.7 0.6 0.135 0.5 0.24 0.98 0.1 1.5-1.275 0.45-2.49 1-3.6 1.6-0.85 0.6-0.785 0.31-1 2.3-0.16 1.59 3.5 1.7 6 1.7s6.163-0.1 6-1.7c-0.215-2-0.23-1.71-1-2.3-1.1-0.654-2.45-1.167-3.6-1.6-0.15-0.56-0.04-0.973 0.1-1.5 0.235-0.25 0.5-0.363 0.7-0.6 0.69-0.885 0.8-2.425 0.8-3.5 0-1.59-1.43-2.8-3-2.8-1.75 0-3 1.43-3 2.8z" />
</svg>
